<?xml version="1.0" encoding="UTF-8"?>
<svg id="Capa_2" data-name="Capa 2" xmlns="http://www.w3.org/2000/svg" viewBox="0 0 428.35 277.06">
  <defs>
    <style>
      .cls-1 {
        fill: #fff;
      }

      .cls-2 {
        fill: #1f7593;
      }

      .cls-3 {
        fill: #666;
      }
    </style>
  </defs>
  <g id="Capa_1-2" data-name="Capa 1">
    <g>
      <path class="cls-2" d="m416.48,129.16c-7.92-10.16-18.4-16.63-31.45-19.41,11.55-3.42,20.8-9.52,27.76-18.29,6.95-8.77,10.43-19.79,10.43-33.05,0-17.97-6.47-32.19-19.42-42.68-12.95-10.48-30.86-15.72-53.75-15.72h-162.88l-59.14,155.96L64.82,0H0v225.27h54.87V89.85l50.7,135.42h44.28l19.97-58.72c6.48,9.59,17.58,13.06,25.35,14.3l2,44.41h156.41c23.53,0,41.88-5.5,55.03-16.53,13.16-11.02,19.74-25.94,19.74-44.76,0-13.05-3.96-24.65-11.87-34.82Zm-239.27,18.01l19.96-57v73.68c-12.33-4.44-17.75-12.15-19.96-16.68Zm126.31-103.21h35.94c8.99,0,15.88,2.04,20.7,6.1,4.81,4.07,7.22,9.95,7.22,17.65s-2.41,13.53-7.22,17.49c-4.81,3.96-11.71,5.94-20.7,5.94h-35.94v-47.17Zm61.77,130.76c-5.03,4.17-12.14,6.26-21.34,6.26h-40.43v-49.74h39.79c9.2,0,16.42,2.25,21.66,6.74,5.24,4.49,7.86,10.7,7.86,18.61s-2.52,13.96-7.54,18.13Z"/>
      <path class="cls-1" d="m285.29,157.86l-20.57-20.21c2.51-4.07,4.79-8.33,6.81-12.73l6.46-11.72c.73-1.32.7-2.92-.06-4.21-.76-1.29-2.15-2.09-3.66-2.09h-23.3c-1.51,0-2.9.8-3.66,2.1l-4.36,7.43-19.08-18.63c-2.37-2.45-4.1-4.6-5.14-6.38-.83-1.42-1.25-2.71-1.25-3.84,0-.89.28-1.32.73-1.71.42-.37,1.15-.86,2.65-.86,1.34,0,1.9.39,2.24.73.44.44.65,1.28.6,2.5-.04,1.15.39,2.27,1.19,3.1.8.83,1.9,1.3,3.06,1.3h21.94c2.28,0,4.15-1.8,4.24-4.08.21-5.33-.98-10.31-3.55-14.81-2.58-4.51-6.46-8.14-11.54-10.79-4.95-2.58-10.98-3.89-17.9-3.89s-12.78,1.22-17.83,3.61c-5.21,2.48-9.27,5.96-12.05,10.35-2.79,4.4-4.2,9.33-4.2,14.67,0,3.68.59,7.14,1.77,10.27.67,1.79,1.59,3.61,2.75,5.46-4.99,3.04-8.94,6.72-11.78,11.01-3.68,5.54-5.55,11.81-5.55,18.63s1.73,12.73,5.15,17.83c3.39,5.07,8.24,9.02,14.42,11.74,5.97,2.64,13.01,3.97,20.93,3.97,11.81,0,22.28-2.97,31.19-8.83l6.32,6.13c.79.77,1.85,1.2,2.96,1.2h27.12c1.72,0,3.28-1.04,3.93-2.64.65-1.6.28-3.43-.95-4.64Zm-73.11-6.04c-8.39,0-15.2-6.81-15.2-15.2s15.2-22.8,15.2-22.8c0,0,15.2,14.41,15.2,22.8s-6.81,15.2-15.2,15.2Z"/>
      <g>
        <path class="cls-3" d="m2.87,239.2v27.36H.13v-27.36h2.74Z"/>
        <path class="cls-3" d="m25.38,247.17c1.62,1.58,2.43,3.87,2.43,6.87v12.53h-2.7v-12.21c0-2.32-.58-4.1-1.74-5.32-1.16-1.23-2.75-1.84-4.76-1.84s-3.71.65-4.93,1.96c-1.23,1.31-1.84,3.22-1.84,5.75v11.67h-2.74v-21.37h2.74v3.64c.68-1.3,1.66-2.3,2.94-3,1.28-.69,2.73-1.04,4.35-1.04,2.56,0,4.65.79,6.26,2.37Z"/>
        <path class="cls-3" d="m48.08,246.29c1.49.94,2.56,2.13,3.21,3.56v-4.66h2.74v21.92c0,1.96-.42,3.69-1.27,5.21-.85,1.51-2.03,2.68-3.54,3.5-1.51.82-3.24,1.23-5.17,1.23-2.74,0-5.02-.65-6.83-1.96-1.81-1.31-2.94-3.08-3.39-5.32h2.7c.47,1.49,1.36,2.67,2.68,3.56,1.32.89,2.93,1.33,4.83,1.33,1.38,0,2.62-.29,3.72-.88,1.1-.59,1.96-1.46,2.58-2.6s.94-2.5.94-4.07v-5.28c-.68,1.46-1.76,2.67-3.23,3.62-1.47.95-3.22,1.43-5.23,1.43s-3.71-.46-5.26-1.37c-1.55-.91-2.77-2.21-3.64-3.88-.87-1.67-1.31-3.6-1.31-5.79s.44-4.12,1.31-5.77c.87-1.66,2.09-2.94,3.64-3.84,1.55-.9,3.31-1.35,5.26-1.35s3.76.47,5.25,1.41Zm2.15,5.05c-.7-1.3-1.66-2.31-2.88-3.01-1.21-.7-2.55-1.06-4.01-1.06s-2.87.34-4.07,1.02c-1.2.68-2.15,1.66-2.84,2.96-.69,1.29-1.04,2.83-1.04,4.6s.35,3.28,1.04,4.6c.69,1.32,1.64,2.32,2.84,3.01,1.2.69,2.56,1.04,4.07,1.04s2.8-.35,4.01-1.06c1.21-.7,2.17-1.71,2.88-3.01s1.06-2.82,1.06-4.54-.35-3.24-1.06-4.54Z"/>
        <path class="cls-3" d="m79.56,256.94h-17.73c.08,1.62.47,3,1.17,4.15s1.63,2.02,2.78,2.6c1.15.59,2.4.88,3.76.88,1.77,0,3.27-.43,4.48-1.29s2.02-2.02,2.41-3.48h2.9c-.52,2.09-1.64,3.79-3.35,5.11-1.71,1.32-3.86,1.98-6.44,1.98-2.01,0-3.81-.45-5.4-1.35s-2.84-2.18-3.74-3.84c-.9-1.66-1.35-3.59-1.35-5.81s.44-4.16,1.33-5.83c.89-1.67,2.13-2.95,3.72-3.84,1.59-.89,3.41-1.33,5.44-1.33s3.82.44,5.34,1.33c1.53.89,2.7,2.08,3.52,3.58.82,1.5,1.23,3.16,1.23,4.99,0,.94-.03,1.66-.08,2.15Zm-3.66-6.3c-.67-1.12-1.57-1.97-2.72-2.54s-2.4-.86-3.76-.86c-2.04,0-3.77.65-5.21,1.96-1.44,1.31-2.23,3.15-2.39,5.52h15.03c.03-1.59-.29-2.95-.96-4.07Z"/>
        <path class="cls-3" d="m100.93,247.17c1.62,1.58,2.43,3.87,2.43,6.87v12.53h-2.7v-12.21c0-2.32-.58-4.1-1.74-5.32-1.16-1.23-2.75-1.84-4.76-1.84s-3.71.65-4.93,1.96c-1.23,1.31-1.84,3.22-1.84,5.75v11.67h-2.74v-21.37h2.74v3.64c.68-1.3,1.66-2.3,2.94-3,1.28-.69,2.73-1.04,4.35-1.04,2.56,0,4.65.79,6.26,2.37Z"/>
        <path class="cls-3" d="m109.39,240.57c-.39-.39-.59-.87-.59-1.45s.2-1.05.59-1.43c.39-.38.86-.57,1.41-.57s1.02.19,1.41.57c.39.38.59.86.59,1.43s-.2,1.06-.59,1.45c-.39.39-.86.59-1.41.59s-1.02-.2-1.41-.59Zm2.78,4.62v21.37h-2.74v-21.37h2.74Z"/>
        <path class="cls-3" d="m137.65,256.94h-17.73c.08,1.62.47,3,1.17,4.15s1.63,2.02,2.78,2.6c1.15.59,2.4.88,3.76.88,1.77,0,3.27-.43,4.48-1.29s2.02-2.02,2.41-3.48h2.9c-.52,2.09-1.64,3.79-3.35,5.11-1.71,1.32-3.86,1.98-6.44,1.98-2.01,0-3.81-.45-5.4-1.35s-2.84-2.18-3.74-3.84c-.9-1.66-1.35-3.59-1.35-5.81s.44-4.16,1.33-5.83c.89-1.67,2.13-2.95,3.72-3.84,1.59-.89,3.41-1.33,5.44-1.33s3.82.44,5.34,1.33c1.53.89,2.7,2.08,3.52,3.58.82,1.5,1.23,3.16,1.23,4.99,0,.94-.03,1.66-.08,2.15Zm-3.66-6.3c-.67-1.12-1.57-1.97-2.72-2.54s-2.4-.86-3.76-.86c-2.04,0-3.77.65-5.21,1.96-1.44,1.31-2.23,3.15-2.39,5.52h15.03c.03-1.59-.29-2.95-.96-4.07Z"/>
        <path class="cls-3" d="m148.24,245.9c1.24-.73,2.76-1.1,4.56-1.1v2.86h-.74c-1.98,0-3.58.54-4.78,1.6-1.2,1.07-1.8,2.86-1.8,5.36v11.94h-2.74v-21.37h2.74v3.8c.6-1.33,1.52-2.36,2.76-3.09Z"/>
        <path class="cls-3" d="m156.87,240.57c-.39-.39-.59-.87-.59-1.45s.2-1.05.59-1.43c.39-.38.86-.57,1.41-.57s1.02.19,1.41.57c.39.38.59.86.59,1.43s-.2,1.06-.59,1.45c-.39.39-.86.59-1.41.59s-1.02-.2-1.41-.59Zm2.78,4.62v21.37h-2.74v-21.37h2.74Z"/>
        <path class="cls-3" d="m165.93,250.07c.87-1.66,2.09-2.94,3.64-3.84,1.55-.9,3.31-1.35,5.26-1.35s3.79.47,5.27,1.41c1.47.94,2.54,2.14,3.19,3.6v-4.7h2.74v21.37h-2.74v-4.74c-.68,1.46-1.76,2.67-3.23,3.62-1.47.95-3.23,1.43-5.27,1.43s-3.67-.46-5.23-1.37c-1.55-.91-2.77-2.21-3.64-3.88-.87-1.67-1.31-3.6-1.31-5.79s.44-4.12,1.31-5.77Zm16.3,1.27c-.7-1.3-1.66-2.31-2.88-3.01-1.21-.7-2.55-1.06-4.01-1.06s-2.87.34-4.07,1.02c-1.2.68-2.15,1.66-2.84,2.96-.69,1.29-1.04,2.83-1.04,4.6s.35,3.28,1.04,4.6c.69,1.32,1.64,2.32,2.84,3.01,1.2.69,2.56,1.04,4.07,1.04s2.8-.35,4.01-1.06c1.21-.7,2.17-1.71,2.88-3.01s1.06-2.82,1.06-4.54-.35-3.24-1.06-4.54Z"/>
        <path class="cls-3" d="m206.56,265.9c-1.37-.63-2.45-1.5-3.23-2.62s-1.2-2.38-1.25-3.76h2.9c.13,1.33.72,2.5,1.76,3.5,1.04,1,2.57,1.51,4.58,1.51,1.85,0,3.32-.48,4.4-1.43,1.08-.95,1.62-2.16,1.62-3.62,0-1.17-.3-2.12-.9-2.84-.6-.72-1.34-1.25-2.23-1.6s-2.11-.74-3.68-1.16c-1.83-.5-3.28-.98-4.35-1.45-1.07-.47-1.98-1.2-2.74-2.19-.76-.99-1.13-2.34-1.13-4.03,0-1.41.36-2.67,1.1-3.78.73-1.11,1.76-1.98,3.09-2.6,1.33-.63,2.86-.94,4.58-.94,2.53,0,4.57.62,6.13,1.86,1.55,1.24,2.45,2.84,2.68,4.79h-2.97c-.18-1.12-.8-2.12-1.84-2.99-1.04-.87-2.45-1.31-4.23-1.31-1.64,0-3.01.44-4.11,1.31-1.1.88-1.64,2.07-1.64,3.58,0,1.15.3,2.07.9,2.78.6.7,1.35,1.24,2.25,1.6.9.37,2.12.76,3.66,1.17,1.77.5,3.21.99,4.31,1.47,1.1.48,2.02,1.22,2.78,2.21.76.99,1.13,2.32,1.13,3.99,0,1.28-.34,2.49-1.02,3.64-.68,1.15-1.68,2.08-3.01,2.78-1.33.71-2.92,1.06-4.78,1.06s-3.39-.31-4.76-.94Z"/>
        <path class="cls-3" d="m243.93,245.19v21.37h-2.74v-3.76c-.63,1.33-1.59,2.35-2.9,3.05-1.31.71-2.77,1.06-4.38,1.06-2.56,0-4.65-.79-6.26-2.37-1.62-1.58-2.43-3.87-2.43-6.87v-12.49h2.7v12.17c0,2.32.58,4.1,1.74,5.32s2.75,1.84,4.76,1.84,3.71-.65,4.93-1.96c1.23-1.3,1.84-3.22,1.84-5.75v-11.63h2.74Z"/>
        <path class="cls-3" d="m251.54,265.18c-1.55-1.13-2.42-2.68-2.6-4.64h2.82c.13,1.2.7,2.17,1.7,2.92,1,.74,2.35,1.12,4.05,1.12,1.49,0,2.66-.35,3.5-1.06.85-.7,1.27-1.58,1.27-2.62,0-.73-.23-1.33-.7-1.8-.47-.47-1.06-.84-1.78-1.12-.72-.27-1.69-.57-2.92-.88-1.59-.42-2.88-.83-3.88-1.25-.99-.42-1.83-1.04-2.53-1.86-.69-.82-1.04-1.92-1.04-3.31,0-1.04.31-2.01.94-2.9.63-.89,1.51-1.59,2.66-2.11s2.45-.78,3.91-.78c2.3,0,4.15.58,5.56,1.74,1.41,1.16,2.17,2.76,2.27,4.79h-2.74c-.08-1.25-.57-2.26-1.47-3.03s-2.13-1.16-3.7-1.16c-1.38,0-2.5.33-3.37.98s-1.29,1.46-1.29,2.43c0,.84.25,1.52.76,2.06s1.14.95,1.9,1.25,1.77.63,3.05,1c1.54.42,2.77.82,3.68,1.21.91.39,1.7.97,2.35,1.72.65.76.99,1.76,1.02,3.01,0,1.15-.31,2.17-.94,3.07s-1.5,1.61-2.62,2.13-2.41.78-3.88.78c-2.45,0-4.46-.57-6.01-1.7Z"/>
        <path class="cls-3" d="m273.72,247.5v13.27c0,1.31.25,2.21.74,2.7.5.5,1.37.74,2.62.74h2.5v2.35h-2.94c-1.93,0-3.37-.45-4.31-1.35s-1.41-2.38-1.41-4.44v-13.27h-2.97v-2.31h2.97v-5.36h2.78v5.36h5.87v2.31h-5.87Z"/>
        <path class="cls-3" d="m303.35,256.94h-17.73c.08,1.62.47,3,1.17,4.15.7,1.15,1.63,2.02,2.78,2.6,1.15.59,2.4.88,3.76.88,1.77,0,3.27-.43,4.48-1.29,1.21-.86,2.02-2.02,2.41-3.48h2.9c-.52,2.09-1.64,3.79-3.35,5.11-1.71,1.32-3.86,1.98-6.44,1.98-2.01,0-3.81-.45-5.4-1.35s-2.84-2.18-3.74-3.84c-.9-1.66-1.35-3.59-1.35-5.81s.44-4.16,1.33-5.83c.89-1.67,2.13-2.95,3.72-3.84,1.59-.89,3.41-1.33,5.44-1.33s3.82.44,5.34,1.33c1.53.89,2.7,2.08,3.52,3.58s1.23,3.16,1.23,4.99c0,.94-.03,1.66-.08,2.15Zm-3.66-6.3c-.67-1.12-1.57-1.97-2.72-2.54-1.15-.57-2.4-.86-3.76-.86-2.04,0-3.77.65-5.21,1.96-1.44,1.31-2.23,3.15-2.39,5.52h15.03c.03-1.59-.29-2.95-.96-4.07Z"/>
        <path class="cls-3" d="m324.72,247.17c1.62,1.58,2.43,3.87,2.43,6.87v12.53h-2.7v-12.21c0-2.32-.58-4.1-1.74-5.32-1.16-1.23-2.75-1.84-4.76-1.84s-3.71.65-4.93,1.96c-1.23,1.31-1.84,3.22-1.84,5.75v11.67h-2.74v-21.37h2.74v3.64c.68-1.3,1.66-2.3,2.94-3,1.28-.69,2.73-1.04,4.35-1.04,2.56,0,4.64.79,6.26,2.37Z"/>
        <path class="cls-3" d="m336.78,247.5v13.27c0,1.31.25,2.21.74,2.7.5.5,1.37.74,2.62.74h2.5v2.35h-2.94c-1.93,0-3.37-.45-4.31-1.35s-1.41-2.38-1.41-4.44v-13.27h-2.97v-2.31h2.97v-5.36h2.78v5.36h5.87v2.31h-5.87Z"/>
        <path class="cls-3" d="m347.21,250.07c.87-1.66,2.09-2.94,3.64-3.84,1.55-.9,3.31-1.35,5.26-1.35s3.79.47,5.27,1.41c1.47.94,2.54,2.14,3.19,3.6v-4.7h2.74v21.37h-2.74v-4.74c-.68,1.46-1.76,2.67-3.23,3.62-1.47.95-3.23,1.43-5.27,1.43-1.93,0-3.67-.46-5.23-1.37-1.55-.91-2.77-2.21-3.64-3.88-.88-1.67-1.31-3.6-1.31-5.79s.44-4.12,1.31-5.77Zm16.3,1.27c-.7-1.3-1.66-2.31-2.88-3.01-1.21-.7-2.55-1.06-4.01-1.06s-2.87.34-4.07,1.02c-1.2.68-2.15,1.66-2.84,2.96s-1.04,2.83-1.04,4.6.35,3.28,1.04,4.6,1.64,2.32,2.84,3.01c1.2.69,2.56,1.04,4.07,1.04s2.8-.35,4.01-1.06c1.21-.7,2.17-1.71,2.88-3.01.71-1.3,1.06-2.82,1.06-4.54s-.35-3.24-1.06-4.54Z"/>
        <path class="cls-3" d="m379.54,246.29c1.47-.94,3.22-1.41,5.23-1.41s3.71.45,5.25,1.35,2.75,2.18,3.62,3.84c.87,1.66,1.31,3.58,1.31,5.77s-.44,4.12-1.31,5.79c-.87,1.67-2.09,2.96-3.64,3.88s-3.29,1.37-5.23,1.37c-2.04,0-3.79-.46-5.26-1.39-1.47-.93-2.55-2.13-3.23-3.62v4.7h-2.7v-28.97h2.7v12.33c.7-1.49,1.79-2.7,3.27-3.64Zm11.59,4.95c-.69-1.29-1.64-2.28-2.84-2.96-1.2-.68-2.56-1.02-4.07-1.02s-2.8.35-4.01,1.06c-1.21.71-2.17,1.71-2.88,3.01-.71,1.31-1.06,2.82-1.06,4.54s.35,3.24,1.06,4.54c.7,1.3,1.66,2.31,2.88,3.01,1.21.71,2.55,1.06,4.01,1.06s2.87-.34,4.07-1.04c1.2-.69,2.15-1.7,2.84-3.01s1.04-2.85,1.04-4.6-.35-3.31-1.04-4.6Z"/>
        <path class="cls-3" d="m402.74,237.6v28.97h-2.74v-28.97h2.74Z"/>
        <path class="cls-3" d="m428.22,256.94h-17.73c.08,1.62.47,3,1.17,4.15.7,1.15,1.63,2.02,2.78,2.6,1.15.59,2.4.88,3.76.88,1.77,0,3.27-.43,4.48-1.29,1.21-.86,2.02-2.02,2.41-3.48h2.9c-.52,2.09-1.64,3.79-3.35,5.11-1.71,1.32-3.86,1.98-6.44,1.98-2.01,0-3.81-.45-5.4-1.35s-2.84-2.18-3.74-3.84c-.9-1.66-1.35-3.59-1.35-5.81s.44-4.16,1.33-5.83c.89-1.67,2.13-2.95,3.72-3.84,1.59-.89,3.41-1.33,5.44-1.33s3.82.44,5.34,1.33c1.53.89,2.7,2.08,3.52,3.58s1.23,3.16,1.23,4.99c0,.94-.03,1.66-.08,2.15Zm-3.66-6.3c-.67-1.12-1.57-1.97-2.72-2.54-1.15-.57-2.4-.86-3.76-.86-2.04,0-3.77.65-5.21,1.96-1.44,1.31-2.23,3.15-2.39,5.52h15.03c.03-1.59-.29-2.95-.96-4.07Z"/>
      </g>
    </g>
  </g>
</svg>